<?xml version="1.0" standalone="no"?>
<!DOCTYPE svg PUBLIC "-//W3C//DTD SVG 1.1//EN" "http://www.w3.org/Graphics/SVG/1.1/DTD/svg11.dtd" >
<svg xmlns="http://www.w3.org/2000/svg">
<metadata>
This is a custom SVG webfont generated by Font Squirrel.
Copyright   : Copyright 2010 Anton Koovit
Designer    : Anton Koovit
Foundry     : Anton Koovit
Foundry URL : httpwwwkorkorkcom
</metadata>
<defs>
<font id="webfontau9vOdrl" horiz-adv-x="720" >
<font-face units-per-em="2048" ascent="1638" descent="-410" />
<missing-glyph horiz-adv-x="446" />
<glyph unicode=" " horiz-adv-x="446" d="M0 0z" />
<glyph unicode="!" horiz-adv-x="681" d="M211 121q0 23 10 49q8 20 28.5 40.5t41.5 29.5q27 10 51 10q23 0 49 -10q20 -8 41 -29t29 -41q10 -27 10 -49q0 -25 -10 -51q-8 -23 -28.5 -43.5t-41.5 -28.5q-27 -10 -49 -10q-25 0 -51 10q-20 8 -41 28.5t-29 43.5q-10 26 -10 51zM211 1577h260l-41 -1167h-178z" />
<glyph unicode="&#x22;" horiz-adv-x="649" d="M41 1577h227l-16 -518h-170zM406 1577h229l-47 -518h-168z" />
<glyph unicode="#" horiz-adv-x="1421" d="M20 389l41 195h238l84 415h-254l41 199h252l63 318h191l-62 -318h351l63 318h191l-62 -318h225l-39 -199h-225l-82 -415h240l-37 -195h-240l-75 -389h-193l76 389h-350l-76 -389h-197l76 389h-240zM494 584h352l80 415h-351z" />
<glyph unicode="$" horiz-adv-x="1208" d="M150 303v172h251v-10h2q0 -80 55.5 -123t166.5 -43q102 0 159.5 39t57.5 111q0 39 -19 63q-20 27 -49 41q-41 20 -65 27q-37 10 -70 18l-176 47q-55 14 -105 39q-47 25 -82 61q-41 43 -55 84q-18 49 -18 115q0 59 20 107q23 53 62 88q43 41 98 63q49 20 133 35v342h197 v-342q90 -16 147 -53q66 -43 101 -94h100v-172h-209l-23 -3v3h-2v22q-8 63 -65 104t-146 41q-108 0 -165 -36q-57 -37 -58 -97q0 -43 18.5 -67.5t47.5 -40.5q20 -12 61 -23q23 -6 64 -18l174 -53q80 -27 119 -45q47 -23 88 -60q37 -34 55 -80q20 -51 20 -106q0 -61 -24 -115 q-27 -57 -66 -96q-45 -45 -104 -72q-66 -31 -133 -41v-321h-197v321q-96 14 -155.5 61.5t-92.5 106.5h-118z" />
<glyph unicode="%" horiz-adv-x="1728" d="M76 1167q0 66 24.5 127.5t69.5 106.5q43 45 109 72q61 27 139 26q76 0 137 -26q63 -27 108.5 -72t69.5 -107q27 -66 27 -127q0 -68 -25 -129q-23 -57 -70 -104t-108 -73.5t-139 -26.5q-80 0 -142 26q-66 29 -108 74q-45 49 -68 104q-24 61 -24 129zM213 -16l1038 1556 h197l-1042 -1556h-193zM244 1167.5q0 -32.5 14 -67.5q12 -31 36.5 -55.5t55.5 -37t68 -12.5q35 0 65 13q27 10 54 36q25 25 36 56q14 35 14.5 67.5t-14.5 67.5q-10 27 -36 53q-23 23 -53.5 35t-65.5 12q-37 0 -68 -12q-29 -12 -55 -35q-25 -20 -37 -53q-14 -35 -14 -67.5z M940 324q0 61 27 127q23 57 69.5 104t108 73.5t137.5 26.5q78 0 139.5 -26.5t108.5 -73.5t69 -104q25 -61 25 -127q0 -68 -25 -129q-25 -59 -67 -107q-39 -41 -109 -72q-61 -27 -141 -26q-78 0 -139 26q-70 31 -109 72q-47 51 -69 107q-25 61 -25 129zM1110 324 q0 -33 14 -68q12 -31 37 -55.5t55.5 -36.5t65.5 -12q37 0 68 12q27 10 53 37q25 25 37 55.5t12 67.5q0 35 -12 65q-10 27 -37 53q-23 23 -53 35q-35 14 -68 15q-29 0 -65 -15q-29 -12 -56 -35q-25 -20 -37 -53q-14 -36 -14 -65z" />
<glyph unicode="&#x26;" horiz-adv-x="1466" d="M143 426q0 61 19 119q18 59 51 106q37 55 76 90q47 45 135 88l-66 64q-35 35 -51 55q-25 31 -43 68q-16 31 -28 74q-12 41 -13 77q0 82 31 150q29 63 84 119q43 43 127 80q71 31 153 30q88 0 162 -30q68 -29 127 -84q55 -51 86 -121q31 -68 31 -144q0 -61 -12 -106 q-12 -43 -33 -80q-16 -29 -53 -66q-29 -29 -66 -55q-31 -23 -69 -45q-49 -29 -74 -41l305 -285q35 86 51 146q18 71 31 129h188q-16 -84 -53 -195q-35 -102 -88 -198l276 -256l-139 -121l-235 227q-41 -49 -92 -94q-49 -43 -104.5 -73.5t-117 -49t-133.5 -18.5 q-94 0 -182 34q-86 34 -148 93q-61 57 -98 139q-35 76 -35 174zM322 430q0 -57 22 -108q20 -45 62 -84q37 -33 94 -58q49 -20 114 -20q52 0 98.5 12t86.5 37q43 27 73 57q37 37 62 70l-379 366l-82 -36q-37 -16 -61 -39q-23 -20 -47 -56q-16 -23 -31 -67q-12 -37 -12 -74z M397 1169q0 -45 21 -88q25 -51 74 -98l90 -84q47 18 110 57q55 33 92 70q27 29 43 64q18 37 18.5 77.5t-18 79.5t-49.5 70q-27 27 -73 47q-43 18 -87 18q-47 0 -90 -16q-41 -14 -69 -45q-31 -31 -45 -68q-17 -43 -17 -84z" />
<glyph unicode="'" horiz-adv-x="339" d="M37 1059v518l227 16l-49 -534h-178z" />
<glyph unicode="(" d="M141 590q0 147 27 280.5t78 270.5q43 115 123 254q70 121 161 235l138 -110q-76 -94 -140 -211q-59 -106 -104 -230q-41 -111 -64 -241q-23 -129 -22.5 -248t22.5 -248q23 -127 64 -242q41 -117 104 -229q63 -117 140 -211l-138 -111q-92 115 -161 236q-80 139 -123 254 q-51 137 -78 270.5t-27 280.5z" />
<glyph unicode=")" d="M53 -340q76 94 140 211q63 113 104 229q41 115 63 242q23 129 23 248t-23 248q-23 131 -63 241q-45 123 -104 230q-63 117 -140 211l137 110q92 -115 162 -235q72 -125 123 -254q47 -121 78 -271q27 -133 27 -280.5t-27 -280.5q-31 -150 -78 -270q-51 -129 -123 -254 q-70 -121 -162 -236z" />
<glyph unicode="*" horiz-adv-x="835" d="M59 1257l39 125l252 -82v246h133v-252l248 82l37 -119l-250 -79l158 -215l-109 -72l-149 207l-148 -205l-108 70l155 213z" />
<glyph unicode="+" horiz-adv-x="1310" d="M143 608v183h420v419h182v-419h422v-183h-422v-422h-182v422h-420z" />
<glyph unicode="," horiz-adv-x="567" d="M20 -287l185 570l219 -86l-260 -537z" />
<glyph unicode="-" horiz-adv-x="735" d="M94 496v172h551v-172h-551z" />
<glyph unicode="." horiz-adv-x="454" d="M96 121q0 23 10 49q8 20 29 40.5t41 29.5q27 10 51 10q23 0 49 -10q20 -8 41 -29t29 -41q10 -27 10 -49q0 -25 -10 -51q-8 -23 -28.5 -43.5t-41.5 -28.5q-27 -10 -49 -10q-25 0 -51 10q-20 8 -40.5 28.5t-29.5 43.5q-10 26 -10 51z" />
<glyph unicode="/" horiz-adv-x="847" d="M37 -29l600 1598h174l-600 -1598h-174z" />
<glyph unicode="0" horiz-adv-x="1329" d="M88 756q0 164 39 323q37 152 100 242q63 92 162 156q96 63 268 63q164 0 269 -51q106 -51 176 -156q68 -100 96.5 -255.5t28.5 -315.5q0 -158 -29 -305.5t-94 -247.5q-70 -106 -176 -166q-111 -61 -273 -61q-163 0 -270 61q-117 66 -176 164q-65 104 -92 246 q-29 147 -29 303zM293 762q0 -123 12 -234q12 -109 51 -190q41 -86 111 -131q72 -47 188.5 -47t188 47t108.5 131q35 78 54 190q18 111 18 234q0 127 -14 229q-16 115 -54 193q-41 86 -112 135q-70 49 -187 49q-121 0 -188.5 -49t-101.5 -121q-35 -74 -54 -194 q-20 -138 -20 -242z" />
<glyph unicode="1" horiz-adv-x="856" d="M82 1114v209l422 236h80v-1387h149v-172h-491v172h147v1108z" />
<glyph unicode="2" horiz-adv-x="1099" d="M86 1104q0 96 37 176q39 86 96 139q57 55 141 90q78 33 168 33q104 0 185 -33q86 -35 141 -90q58 -58 92 -135q33 -74 33 -168q0 -41 -8 -76q-12 -53 -29 -88q-22 -46 -55 -98q-43 -68 -84 -115l-473 -563h647v-176h-889v147l533 644l25.5 30.5l31.5 38.5q29 35 55 78 q25 39 41 86q16 45 17 92q0 53 -21 94q-23 45 -53 76q-35 35 -84 53.5t-107 18.5q-49 0 -98 -17q-43 -14 -82 -49q-37 -33 -57 -78q-18 -41 -23 -110h-180z" />
<glyph unicode="3" horiz-adv-x="1107" d="M41 365h192q29 -92 103 -146q76 -53 190 -53q53 0 101 20q51 23 88 60q41 41 61 88q23 51 23 110q0 57 -23 113q-20 51 -61 88q-40 37 -92 55q-53 18 -109 19h-86v151h70q68 0 118 19q49 16 89 53q37 34 55 80q20 51 20 98q0 39 -16 84q-14 43 -51 82q-33 35 -88 62 q-52 25 -123 24q-59 0 -106.5 -20.5t-96.5 -75.5q-49 -57 -53 -125h-191q6 90 45 158q43 74 97 123q59 53 139 83.5t164 30.5q113 0 194 -35q88 -37 148 -94q61 -57 96 -135q33 -72 33 -152q0 -47 -12.5 -96t-36.5 -92q-23 -41 -66 -80q-45 -41 -96 -65q51 -20 88 -49 q41 -33 72 -78q33 -47 49 -103q18 -59 18 -125q0 -94 -39 -182q-35 -80 -102 -143q-66 -63 -152 -97q-88 -35 -188 -34q-96 0 -182 32q-94 35 -153.5 92.5t-92.5 125.5q-31 64 -37 129z" />
<glyph unicode="4" horiz-adv-x="1249" d="M90 438l2 158l539 920h213l-512 -906h387v250l196 14v-264h226v-172h-226v-266h150v-172h-492v172h146v266h-629z" />
<glyph unicode="5" horiz-adv-x="1138" d="M74 289l164 82q14 -47 46.5 -94.5t73.5 -75.5q45 -33 92.5 -49.5t108.5 -16.5q74 0 133 27q63 29 107 71q47 47 71 109q27 68 27 131.5t-27 130.5q-25 59 -71 105q-55 51 -107 71q-61 25 -133 25q-78 0 -147 -29q-68 -27 -113 -76l-147 23v793h854v-166h-689v-455 q59 41 115 57q58 18 135 19q113 0 205 -39t162 -108.5t106 -159.5q37 -89 37 -191t-36.5 -194.5t-104.5 -159.5q-68 -70 -164 -109q-98 -41 -213 -41q-96 0 -166 23q-78 25 -139 67.5t-107 100.5q-45 58 -73 129z" />
<glyph unicode="6" horiz-adv-x="1247" d="M94 487q0 90 33 175q29 74 84 180l371 674h233l-340 -568q70 29 111 31q66 4 88 4q90 0 178 -35q80 -31 152 -96q63 -57 106 -150q41 -88 41 -190q0 -127 -43 -225q-45 -102 -117 -168q-70 -66 -168 -103q-94 -37 -205 -36q-101 0 -196 36q-94 37 -168 104.5t-117 159.5 t-43 207zM281 485q0 -72 26 -139q25 -59 72 -104t108 -66q63 -23 136 -22q70 0 131 24q63 25 108 68q49 47 76 104q27 59 27 135q0 88 -29 145.5t-82 104.5q-47 41 -117 64q-63 20 -141 20q-72 0 -123 -22q-43 -18 -94 -64q-47 -41 -72 -102q-26 -66 -26 -146z" />
<glyph unicode="7" horiz-adv-x="1075" d="M41 1206v310h995v-150l-139 -276l-141 -297q-94 -207 -138 -312q-59 -143 -118 -309h125v-172h-443v172h117q63 176 119 313l133 308q109 242 131 286l119 244h-568v-117h-192z" />
<glyph unicode="8" horiz-adv-x="1275" d="M139 442q0 57 17 119q14 53 47 107q27 43 73 90q39 39 95 71q-80 57 -121 138q-45 86 -45 180q0 82 33 153q33 74 90 127.5t137 85.5q77 31 166 31q86 0 162 -31q77 -31 135 -86q59 -57 92 -127q33 -72 33 -153q0 -98 -45 -180t-123 -138q49 -29 92 -71q37 -37 72 -92 q33 -53 47 -107q16 -61 16 -117q0 -98 -39 -178q-41 -84 -104 -145q-65 -61 -154 -99q-90 -37 -188 -36q-101 0 -190.5 36.5t-153.5 98.5q-63 61 -105 145q-39 80 -39 178zM322 446q0 -61 24.5 -112t65.5 -90q49 -45 96 -64q57 -23 119 -22q59 0 116 22q47 18 97 64 q41 39 65.5 90t24.5 112q0 57 -25 109q-27 55 -65 92q-45 41 -97 62q-57 23 -116 22q-61 0 -119 -22q-51 -20 -96 -62q-39 -37 -66 -92q-24 -52 -24 -109zM377 1143q0 -51 18 -94q16 -39 54 -76q31 -31 81 -51q47 -18 101 -19q49 0 96 18.5t80 51.5q31 31 53 76q20 41 21 94 q0 51 -21 92q-23 45 -53 76q-35 35 -80 53q-47 18 -96 18q-53 0 -100.5 -18t-81.5 -53q-37 -37 -54 -76q-18 -43 -18 -92z" />
<glyph unicode="9" horiz-adv-x="1269" d="M102 1010q0 127 43 225q45 102 117 168q70 63 170 102q90 35 205 35q113 0 201 -35q92 -37 166 -104q70 -63 114 -160q41 -88 41 -209q0 -90 -33 -174q-25 -66 -84 -178l-378 -680h-234l348 571q-45 -20 -90 -26q-41 -6 -88 -6q-84 0 -182 34q-92 33 -162 97 q-63 57 -108.5 153.5t-45.5 186.5zM289 1034q0 -82 30.5 -143.5t79.5 -104.5q45 -41 113 -63q59 -20 127 -21q90 0 141 23q47 20 97 63q43 39 69 103q27 68 27 143.5t-27 141.5q-25 59 -72 104q-43 41 -108 63q-63 23 -135 23q-74 0 -129 -23q-68 -27 -111 -67 q-45 -41 -74 -107q-28 -63 -28 -135z" />
<glyph unicode=":" horiz-adv-x="522" d="M96 121q0 23 10 49q8 20 29 40.5t41 29.5q27 10 51 10q23 0 49 -10q20 -8 41 -29t29 -41q10 -27 10 -49q0 -25 -10 -51q-8 -23 -28.5 -43.5t-41.5 -28.5q-27 -10 -49 -10q-25 0 -51 10q-20 8 -40.5 28.5t-29.5 43.5q-10 26 -10 51zM96 907q0 23 10 49q8 20 29 41t41 29 q27 10 51 10q23 0 49 -10q20 -8 41 -28.5t29 -41.5q10 -27 10 -49q0 -25 -10 -51q-8 -23 -29 -43q-16 -16 -41 -29q-20 -10 -49 -10q-31 0 -51 10q-25 12 -41 29q-20 20 -29 43q-10 26 -10 51z" />
<glyph unicode=";" horiz-adv-x="522" d="M-20 -287l184 570l219 -86l-260 -537zM96 907q0 23 10 49q8 20 29 41t41 29q27 10 51 10q23 0 49 -10q20 -8 41 -28.5t29 -41.5q10 -27 10 -49q0 -25 -10 -51q-8 -23 -29 -43q-16 -16 -41 -29q-20 -10 -49 -10q-31 0 -51 10q-25 12 -41 29q-20 20 -29 43q-10 26 -10 51z " />
<glyph unicode="&#x3c;" horiz-adv-x="999" d="M10 604v158l844 422v-185l-680 -315l680 -315v-185z" />
<glyph unicode="=" horiz-adv-x="921" d="M86 305v141h750v-141h-750zM86 643v141h750v-141h-750z" />
<glyph unicode="&#x3e;" horiz-adv-x="1146" d="M164 184v185l678 315l-678 315v185l844 -422v-158z" />
<glyph unicode="?" horiz-adv-x="1064" d="M121 1137q6 92 41 159q43 84 94 131q63 57 143 90t181 33q104 0 178 -32q82 -37 131 -88q53 -57 80 -127q27 -72 26 -152q0 -100 -53 -188q-55 -92 -154 -158q-72 -51 -108 -84q-61 -52 -86 -129q-27 -80 -29 -129q-4 -70 -4 -127h-180q0 78 8 176q6 68 29 133 q23 61 57 107q33 41 96 94q23 20 97 78q39 31 73 65q31 31 50 68q16 33 16 88q0 45 -19 88q-18 41 -47 74q-27 31 -73 53q-37 18 -88 18q-82 0 -136 -26q-49 -25 -86 -68q-29 -35 -47 -84q-14 -41 -14 -76zM338 121q0 23 10 49q8 20 28.5 40.5t41.5 29.5q27 10 51 10 q23 0 49 -10q20 -8 41 -29t29 -41q10 -27 10 -49q0 -25 -10 -51q-8 -23 -28.5 -43.5t-41.5 -28.5q-27 -10 -49 -10q-25 0 -51 10q-20 8 -41 28.5t-29 43.5q-10 26 -10 51z" />
<glyph unicode="@" horiz-adv-x="2308" d="M145 494q0 141 35 264q37 133 101 239q59 102 157.5 200.5t200.5 158.5q106 63 240 100q121 35 266 35q135 0 268 -35q125 -33 240 -96q104 -59 202 -150q90 -84 156 -190q61 -100 100 -225q35 -113 35 -248q0 -70 -12 -137q-8 -45 -41 -131q-20 -55 -63 -119 q-39 -57 -86 -97q-49 -39 -109 -63q-57 -23 -131 -23q-94 0 -154 39q-66 43 -98 105q-72 -57 -141 -82q-82 -29 -170 -29q-106 0 -193 37q-90 39 -151 100q-59 59 -99 150q-37 86 -36.5 182t36.5 183q35 82 103 149q66 66 151.5 102.5t188.5 36.5q76 0 139 -20 q70 -23 125 -58v84h184v-663q0 -66 17 -92q18 -29 43 -45q23 -14 59 -15q74 0 125 41q53 43 78 97q27 55 39 118q12 61 12 150q0 100 -29 198q-25 82 -82 179q-49 82 -127 155q-78 76 -163 121q-104 55 -197 80q-100 27 -219 27q-109 0 -217 -29q-100 -27 -194.5 -82 t-166.5 -127q-76 -74 -127 -164q-55 -94 -82 -194q-29 -109 -28.5 -217.5t28.5 -217.5q25 -94 82 -194q51 -90 127 -166q72 -72 166 -127t195 -82q109 -29 217 -29q114 0 221 31q109 31 201 86l94 -157q-119 -72 -244 -107q-129 -37 -272 -37q-145 0 -266 35 q-133 37 -240 100q-102 59 -201 158q-94 94 -157.5 202.5t-100.5 237.5q-35 122 -35 267zM846 479q0 -61 20 -110q23 -53 60 -90q41 -41 94 -62q57 -23 121 -22q94 0 161.5 43t102.5 112v254q-25 45 -43 66q-25 29 -62 51q-31 20 -73 33q-40 12 -86 12q-59 0 -117 -23 q-53 -20 -94 -61q-40 -40 -62 -92q-22 -56 -22 -111z" />
<glyph unicode="A" horiz-adv-x="1540" d="M10 0v172h131l473 1344h295l471 -1344h152v-172h-492v172h125l-118 344h-584l-117 -344h156v-172h-492zM520 682h467l-235 678z" />
<glyph unicode="B" horiz-adv-x="1351" d="M143 0v172h144v1171h-144v175l682 -2q90 0 172 -35q76 -33 142 -95q59 -55 94 -139q35 -82 35 -174q0 -98 -54 -176q-57 -82 -153 -129q37 -18 88 -61q40 -34 68 -74q27 -39 43 -88t16 -94q0 -90 -35 -177q-33 -82 -94 -143q-63 -63 -141 -96q-82 -35 -172 -35h-691z M483 172h353q49 0 90 25q47 29 71 61q27 35 47 88q18 49 19 100q0 45 -19 84q-23 49 -47 74q-35 35 -73 51q-43 18 -88 19h-353v-502zM483 848h344q47 0 91 18q37 14 71 52q27 27 47 73q18 43 19 88q0 51 -19 97q-18 47 -49 84q-37 43 -72 61q-45 23 -88 22h-344v-495z" />
<glyph unicode="C" horiz-adv-x="1507" d="M72 760q0 160 53 307q49 133 151 250q92 104 230 168q132 61 289 61q141 0 239 -39q104 -41 172 -94t121 -119h107v-178h-215q-70 115 -177 178q-113 66 -247 66q-115 0 -211 -49q-102 -53 -166 -131q-72 -88 -107 -191q-37 -109 -37 -229q0 -147 41 -252 q41 -106 111 -182q63 -70 160 -121q88 -47 209 -47q160 0 274 75q119 78 201 252l176 -84q-37 -108 -129 -208q-90 -98 -225 -162q-132 -61 -295 -62q-154 0 -285 59.5t-231 166.5q-104 111 -156 256q-53 149 -53 309z" />
<glyph unicode="D" horiz-adv-x="1505" d="M143 0v172h144v1171h-144v173h564q106 0 198 -27q96 -29 174 -76q88 -53 148 -117q66 -68 112 -153q47 -84 72 -180q25 -94 25 -201q0 -104 -25 -203q-23 -90 -72 -182q-39 -74 -112 -154q-59 -63 -148 -119q-84 -51 -174 -77q-92 -27 -198 -27h-564zM483 172h236 q109 0 199 45t159 127q74 88 111 186q39 104 39 232q0 123 -39 227q-35 96 -111 185q-66 78 -159 124q-90 45 -199 45h-236v-1171z" />
<glyph unicode="E" horiz-adv-x="1284" d="M143 0v172h144v1171h-144v173h1086v-429h-205v256h-541v-485h455v-172h-455v-514h541v256h205v-428h-1086z" />
<glyph unicode="F" horiz-adv-x="1241" d="M143 0v172h144v1171h-144v173h1086v-429h-205v256h-541v-487h521v-168h-521v-516h152v-172h-492z" />
<glyph unicode="G" horiz-adv-x="1681" d="M72 760q0 160 53 307q49 133 151 250q92 104 230 168q132 61 289 61q141 0 247 -41q96 -37 176 -100.5t119 -110.5h97v-178h-215q-70 119 -177 180q-109 64 -236 64h-11q-115 0 -211 -49q-102 -53 -166 -131q-70 -86 -107 -193q-37 -108 -37 -227q0 -139 41 -248 q43 -113 109 -184q65 -71 160 -117q98 -47 211 -47q190 0 315 94q123 92 172 291h-424v172h641v-727h-186v305q-39 -84 -94 -139q-63 -63 -127 -97q-78 -41 -150 -57q-80 -18 -162 -18q-145 0 -272 49q-125 49 -227 158q-104 111 -156 256q-53 149 -53 309z" />
<glyph unicode="H" horiz-adv-x="1841" d="M143 0v172h144v1171h-144v173h492v-173h-152v-458h877v458h-152v173h492v-173h-144v-1171h144v-172h-492v172h152v545h-877v-545h152v-172h-492z" />
<glyph unicode="I" horiz-adv-x="768" d="M143 0v172h144v1171h-144v173h484v-173h-144v-1171h144v-172h-484z" />
<glyph unicode="J" horiz-adv-x="681" d="M102 -223q72 111 107 172l39 71l33 70q16 35 24 64q10 35 10 51v1138h-165v173h491v-173h-127v-1171q0 -16 -10 -51q-4 -14 -27 -64q-10 -23 -39 -67l-45 -68q-57 -84 -119 -160z" />
<glyph unicode="K" horiz-adv-x="1566" d="M143 0v172h144v1171h-142v173h492v-173h-154v-1171h152v-172h-492zM485 774l662 569v173h348v-173h-119l-663 -559l620 -612h162v-172h-408v172z" />
<glyph unicode="L" horiz-adv-x="1294" d="M143 0v172h144v1171h-144v173h492v-173h-152v-1171h523q12 0 32 8q16 6 29 19q8 8 20 28q8 14 9 31v191h190v-449h-1143z" />
<glyph unicode="M" horiz-adv-x="2187" d="M143 0v172h144v1153h-144v191h480l481 -1309l487 1309h455v-191h-143v-1153h143v-172h-492v172h162v1163l-530 -1335h-170l-537 1339v-1167h156v-172h-492z" />
<glyph unicode="N" horiz-adv-x="1622" d="M143 1343v175h408l692 -1246l8 50v1021h-170v173h492v-173h-129v-1343h-256l-705 1257v-1085h156v-172h-492v172h140v1171h-144z" />
<glyph unicode="O" horiz-adv-x="1595" d="M72 758q0 162 53 309q49 133 151 250q92 104 230 168q133 61 292.5 61t295 -61.5t229.5 -167.5q100 -113 150 -250q53 -147 53 -309q0 -160 -53 -307q-49 -137 -150 -250q-94 -106 -231 -170q-133 -61 -293 -62q-156 0 -287 59.5t-231 166.5q-104 111 -156 256 q-53 149 -53 307zM276 758q0 -137 41 -250q39 -104 109 -182q63 -70 160 -121q92 -49 213 -49q120 0 215 49q102 53 166 131q66 82 104 192q37 106 37 230q0 121 -41 239.5t-113 196.5q-74 80 -168 123t-200 43q-117 0 -215 -49q-100 -49 -166 -131q-68 -84 -105 -193 q-37 -110 -37 -229z" />
<glyph unicode="P" horiz-adv-x="1271" d="M143 0v172h144v1171h-144v173h613q106 0 188 -27q90 -29 148 -78q63 -53 96 -129q35 -80 35 -176q0 -84 -33 -155.5t-96.5 -129t-149.5 -88.5t-192 -31h-269v-530h152v-172h-492zM483 866h273q61 0 104 15q47 16 82 47q41 37 55 73q18 46 19 105q0 113 -68 174 q-70 63 -217 63h-248v-477z" />
<glyph unicode="Q" horiz-adv-x="1595" d="M72 758q0 162 53 309q49 133 151 250q92 104 230 168q133 61 292.5 61t295 -61.5t229.5 -167.5q100 -113 150 -250q53 -147 53 -309q0 -150 -47 -287q-45 -131 -129 -238q-86 -106 -201 -174q-113 -66 -258 -84q55 -16 102 -41l99 -51q59 -31 118 -30q55 0 101 28 q43 29 59 88l152 -69q-12 -57 -45 -99q-37 -47 -76 -71q-37 -25 -92 -41q-45 -14 -99 -15q-80 0 -145 27q-51 20 -141 70q-72 39 -142 39q-41 0 -84 -13v178q-133 18 -256 88q-115 66 -198 173q-80 102 -127 237q-45 133 -45 285zM276 758q0 -133 41 -246t107 -184 q68 -74 166 -123t209 -49q120 0 215 49q102 53 166 131q66 82 104 192q37 106 37 229.5t-41 240t-113 194.5q-78 84 -166 125q-92 43 -202 43q-117 0 -215 -49q-100 -49 -166 -131q-68 -84 -105 -193q-37 -110 -37 -229z" />
<glyph unicode="R" horiz-adv-x="1456" d="M143 0v172h144v1171h-144v173h631q104 0 187 -27q90 -29 147 -78q66 -57 98 -129q35 -80 35 -176q0 -59 -20 -113q-23 -59 -58 -102q-39 -49 -86 -84q-45 -35 -108 -57q27 -14 49 -33q39 -33 49 -49q25 -37 41 -68q14 -27 29 -80l84 -330h131l2 -190h-295l-113 461 q-31 125 -94 182q-66 59 -174 59h-195v-530h152v-172h-492zM483 866h291q61 0 105 15q51 16 82 45q35 31 53 75q20 47 20 103q0 113 -67 176q-66 63 -217 63h-267v-477z" />
<glyph unicode="S" horiz-adv-x="1208" d="M80 283v172h252q0 -111 24 -156q27 -49 66 -78q43 -31 98 -45q61 -16 129 -16q63 0 123 16q49 14 92 47q37 29 60 74q20 41 20 98q0 55 -26 103q-25 45 -64 73q-37 29 -88 50q-18 8 -54 20t-38 12l-219 62q-76 23 -131 55q-59 35 -103 84q-45 51 -65 115q-23 68 -23 151 q0 82 35 162q33 74 98 133q59 53 162 90q92 33 219 33q82 0 150 -18q66 -18 123 -54q53 -33 98 -84q47 -53 72 -106h75v-172h-245q0 90 -31 133q-27 39 -72 66q-41 25 -84 36q-46 12 -92 13q-82 0 -133 -17q-57 -18 -94 -49q-41 -35 -58 -69q-18 -41 -18 -84q0 -68 24 -107 q27 -43 60 -65q29 -20 78 -37l84 -29l202 -66q80 -25 160 -65q68 -35 117 -88q45 -49 72 -117q25 -63 24 -153q0 -96 -39 -175q-41 -84 -106 -139q-66 -57 -166 -92q-92 -33 -209 -33q-121 0 -201 27q-86 29 -139 69q-55 43 -90 103q-37 66 -53 117h-76z" />
<glyph unicode="T" horiz-adv-x="1433" d="M41 1116v400h1352v-400h-205v236h-400v-1180h156v-172h-491v172h139v1180h-346v-236h-205z" />
<glyph unicode="U" horiz-adv-x="1548" d="M113 1343v173h491v-173h-155v-706q0 -125 28 -217q27 -86 80 -145.5t119 -81.5q76 -27 153 -27q84 0 158 22q70 20 123 78q51 55 80 146q29 92 29 225v706h-164v173h491v-173h-135v-684q0 -168 -45 -290q-47 -129 -125 -213q-84 -90 -186 -131q-113 -45 -229.5 -45 t-225.5 45q-106 43 -182 129q-80 90 -121 206q-45 129 -45 281v702h-139z" />
<glyph unicode="V" horiz-adv-x="1484" d="M-10 1343v173h491v-173h-131l389 -1169l416 1169h-141v173h491v-173h-131l-491 -1343h-275l-483 1343h-135z" />
<glyph unicode="W" horiz-adv-x="2560" d="M10 1343v173h492v-173h-131l366 -1165l387 1338h299l412 -1338l375 1165h-152v173h492v-173h-131l-434 -1343h-306l-411 1321l-379 -1321h-303l-443 1343h-133z" />
<glyph unicode="X" horiz-adv-x="1499" d="M170 0v172h98l432 602l-407 569h-123v173h492v-173h-146l295 -415l299 415h-160v173h492v-173h-113l-409 -569l428 -602h94v-172h-492v172h185l-324 451l-326 -451h177v-172h-492z" />
<glyph unicode="Y" horiz-adv-x="1353" d="M51 1343v173h492v-173h-144l285 -487l305 487h-158v173h492v-173h-129l-426 -647v-524h156v-172h-492v172h139v530l-401 641h-119z" />
<glyph unicode="Z" horiz-adv-x="1212" d="M51 0v227l899 1116h-686v-256h-196v429h1095v-224l-913 -1120h711v252h196v-424h-1106z" />
<glyph unicode="[" d="M238 -377v2083h403v-152h-219v-1779h219v-152h-403z" />
<glyph unicode="\" horiz-adv-x="946" d="M41 1581h162l704 -1606h-162z" />
<glyph unicode="]" d="M80 -225h219v1779h-219v152h403v-2083h-403v152z" />
<glyph unicode="^" horiz-adv-x="1228" d="M156 723l403 790h113l403 -790h-143l-316 627l-319 -627h-141z" />
<glyph unicode="_" horiz-adv-x="1024" d="M0 -154h1024v-102h-1024v102z" />
<glyph unicode="`" horiz-adv-x="589" d="M100 1460v17h248l184 -299h-145z" />
<glyph unicode="a" horiz-adv-x="1118" d="M70 274q0 59 20 117q18 53 51 88q39 43 76 64q43 25 92 41q51 16 97 22q49 6 94 6q55 0 121 -4q51 -4 90 -12v84q0 53 -17 96q-12 33 -45 66q-29 29 -69 41q-39 12 -91 12q-47 0 -90 -6q-33 -4 -80 -17q-23 -6 -69 -24q-31 -12 -53 -29l-62 129q25 16 82 45q33 16 92 35 q33 10 99 23q43 8 100 8q94 0 162 -21q76 -23 123 -67q49 -45 75 -115q29 -74 29 -166l-2 -518h115v-172h-301v96q-59 -55 -131 -90q-74 -35 -162 -35q-76 0 -140 25q-66 25 -108 65q-49 47 -72 97q-26 59 -26 116zM250 291q0 -43 14.5 -72t42.5 -51q27 -20 66 -31 q41 -10 84 -10q41 0 73 8q35 8 70 25q34 15 62 37q31 25 47 43l2 233h-217q-55 0 -99 -12q-39 -10 -76 -35q-31 -18 -51 -57q-18 -33 -18 -78z" />
<glyph unicode="b" horiz-adv-x="1251" d="M57 1384v172h336v-606q55 45 144 80q78 31 161 31q100 0 187 -37q80 -35 147 -109q57 -63 94 -165q35 -98 35 -213q0 -119 -39 -226q-37 -102 -104 -176q-66 -70 -162 -112q-90 -39 -203 -39q-74 0 -145 22q-61 20 -115 60v-66h-186v1384h-150zM393 229q31 -35 94 -59 q61 -25 156 -25q65 0 123 25q61 27 104 72q41 45 72 120q27 68 27 168q0 88 -25 156q-25 66 -70 115q-43 47 -102 71q-58 25 -123 25q-72 0 -139 -31q-72 -33 -117 -80v-557z" />
<glyph unicode="c" horiz-adv-x="1116" d="M92 520q0 123 39 221q41 102 106.5 174t160 113t194.5 41q98 0 186 -35q90 -35 154 -102h104v-172h-188q-45 80 -107 110q-66 35 -149 35q-68 0 -123 -26q-51 -25 -98 -78q-43 -49 -68 -121q-25 -71 -24 -160q0 -86 24 -158q25 -70 68 -118q39 -45 100 -76 q53 -27 121 -27q96 0 168 47q70 45 112 136l154 -76q-29 -59 -74 -115q-39 -47 -100 -88q-57 -37 -121 -55q-68 -18 -141 -19q-104 0 -199 41q-90 39 -157.5 113t-104.5 174q-37 101 -37 221z" />
<glyph unicode="d" horiz-adv-x="1267" d="M92 528q0 127 35 220q35 94 102 167q55 61 160 107q90 39 207 39q72 0 137 -17q55 -14 119 -57v397h-141v172h327v-1384h152v-172h-338v86q-47 -49 -117 -80q-68 -29 -149 -29q-106 0 -195 37q-92 39 -158 107q-68 71 -104 172q-37 100 -37 235zM285 530 q0 -96 24.5 -169.5t67.5 -122.5q45 -51 102 -74q61 -25 131 -25q84 0 140 25q57 25 102 74v579q-49 43 -114.5 61.5t-133 18.5t-125.5 -25q-55 -23 -100 -71.5t-70 -114.5q-24 -68 -24 -156z" />
<glyph unicode="e" horiz-adv-x="1173" d="M92 522q0 111 31 209t92 172t153.5 117t211.5 43q121 0 196 -35q78 -37 127 -94q51 -61 76 -133q25 -76 35 -154q6 -37 6 -78q0 -14 1 -38.5t1 -36.5h-746q0 -43 7 -80q6 -35 18 -70q37 -104 119 -151q84 -49 184 -50q78 0 158 22.5t160 70.5l75 -127q-102 -72 -204 -105 q-100 -33 -215 -33q-102 0 -195 35q-84 33 -154 105q-63 66 -100 172q-37 104 -37 239zM287 639h536q-2 57 -18 106q-16 51 -45 86q-27 31 -78 56q-43 20 -115 20q-66 0 -114 -18q-45 -16 -82 -53q-29 -29 -54 -84q-20 -47 -30 -113z" />
<glyph unicode="f" horiz-adv-x="743" d="M86 885v151h170v162q4 94 26.5 157.5t67.5 110.5q43 45 106.5 67.5t137.5 22.5q51 0 94 -6q66 -10 76 -12q37 -10 59 -18q10 -4 25.5 -11.5l19.5 -9.5l-57 -133q-25 14 -84 29q-51 12 -106 12q-86 0 -132 -51q-47 -53 -47 -152v-168h240v-151h-240v-713h162v-172h-504 v172h156v713h-170z" />
<glyph unicode="g" horiz-adv-x="1198" d="M92 528q0 127 35 220q35 94 102 167q55 61 160 107q90 39 207 39q86 0 141 -17q63 -18 121 -61v53h186v-995q0 -246 -116 -373q-117 -125 -363 -125q-61 0 -112 8q-78 12 -117 25q-61 18 -113 45q-59 29 -100 66l100 151q49 -39 68 -49q39 -20 84 -37q41 -14 90 -24 q41 -8 94 -9q74 0 133 17q57 16 94 55q33 35 54 111q18 68 18 174v14q-49 -53 -119 -84q-63 -29 -153 -29q-106 0 -195 37q-92 39 -158 107q-68 71 -104 172q-37 100 -37 235zM285 530q0 -96 24.5 -169.5t67.5 -122.5q45 -51 102 -74q61 -25 131 -25q51 0 84 8 q41 10 70 24.5t53 33.5q16 12 41 41v565q-51 45 -117 66q-63 20 -137 20q-68 0 -125 -25q-55 -23 -100 -71.5t-70 -114.5q-24 -68 -24 -156z" />
<glyph unicode="h" horiz-adv-x="1353" d="M100 0v172h156v1212h-141v172h327v-634h7q33 33 63 53q35 23 78 43q37 16 82 26q47 10 90 11q78 0 149 -23q66 -20 115 -69q47 -47 72 -121q27 -80 26 -174v-496h156v-172h-492v172h142v473q0 121 -60 180q-61 61 -174 62q-66 0 -131 -31q-68 -33 -123 -76v-608h150v-172 h-492z" />
<glyph unicode="i" horiz-adv-x="655" d="M92 864v172h338v-864h156v-172h-492v172h148v692h-150zM207 1403q0 23 10 49q8 20 28.5 40.5t41.5 29.5q27 10 51 10q23 0 49 -10q20 -8 41 -28.5t29 -41.5q10 -27 10 -49q0 -25 -10 -51q-8 -23 -28.5 -43.5t-41.5 -28.5q-27 -10 -49 -10q-25 0 -51 10q-20 8 -41 28.5 t-29 43.5q-10 26 -10 51z" />
<glyph unicode="j" horiz-adv-x="602" d="M61 -332q88 12 129 84t41 189v923h-147v172h336v-1116q0 -86 -23 -160q-20 -70 -67 -122q-45 -51 -107 -78q-66 -29 -143 -31zM207 1403q0 20 10 45q9 22 25 37q18 18 36.5 26.5t47.5 8.5q27 0 45 -9q23 -8 39 -26q15 -15 24 -37q10 -25 10 -45q0 -23 -10 -47.5 t-24.5 -38.5t-39 -24.5t-44.5 -10.5q-23 0 -47 10q-22 9 -37 25q-14 14 -24.5 38.5t-10.5 47.5z" />
<glyph unicode="k" horiz-adv-x="1284" d="M92 1384v172h365v-172h-2v-774h180l246 254h-62v172h393v-172h-131l-315 -325l344 -367h125v-172h-219l-424 463h-137v-291h86v-172h-443v172h170v1212h-176z" />
<glyph unicode="l" horiz-adv-x="665" d="M92 0v172h150v1212h-150v172h336v-1384h156v-172h-492z" />
<glyph unicode="m" horiz-adv-x="2048" d="M100 0v172h144v692h-144v172h330v-121h2l72 54q45 31 78 45q35 16 86 30q37 10 92 11q117 0 192 -41q84 -45 125 -129q41 39 80 65q49 35 88 54q43 20 96 36q45 14 105 15q78 0 149 -23q66 -20 115 -69q47 -47 71.5 -121t24.5 -174v-496h144v-172h-484v172h146v473 q0 121 -60 180q-61 61 -174 62q-61 0 -137 -33q-70 -31 -119 -80v-602h144v-172h-484v172h146v473q0 121 -60 180q-61 61 -174 62q-68 0 -131 -31q-66 -31 -125 -78v-606h146v-172h-484z" />
<glyph unicode="n" horiz-adv-x="1363" d="M100 0v172h144v692h-144v172h330v-123h2l70 56q39 27 80 45q39 18 84 30q35 10 94 11q78 0 149 -23q66 -20 115 -69q47 -47 72 -121q27 -80 26 -174v-496h144v-172h-484v172h146v473q0 121 -60 180q-61 61 -174 62q-68 0 -131 -31q-66 -31 -125 -78v-606h146v-172h-484z " />
<glyph unicode="o" horiz-adv-x="1224" d="M86 518q0 125 39 223.5t108 173.5q61 68 164 111q98 41 209 41q113 0 211 -41q100 -43 164 -108q66 -70 104 -175q39 -106 39 -223t-39 -223q-37 -100 -104 -174q-66 -72 -164 -113t-211 -41q-121 0 -213 39q-94 39 -162 113q-72 78 -106 174q-39 106 -39 223zM283 518 q0 -86 26 -162q25 -68 70 -120q47 -53 102.5 -80t124.5 -27q74 0 129 27q59 29 103 77q45 51 69 123q25 70 25 162t-25 166q-23 70 -69 123q-45 51 -103 74q-61 25 -129 24q-66 0 -125 -24.5t-102 -73.5q-47 -53 -70 -123q-26 -80 -26 -166z" />
<glyph unicode="p" horiz-adv-x="1247" d="M59 864v172h330v-86q55 45 143 80q78 31 162 31q100 0 187 -37q80 -35 147 -109q57 -63 94 -165q35 -98 35 -213q0 -117 -39 -228q-35 -100 -104.5 -176t-159.5 -115q-94 -41 -205 -41q-76 0 -141 17q-45 12 -117 43v-336h162v-172h-492v172h142v1163h-144zM391 227 q35 -35 94.5 -61.5t153.5 -26.5q65 0 123 24.5t104 74.5q43 45 72 122q27 72 27 170q0 88 -25 156q-25 66 -70 115q-43 47 -102 71q-58 25 -123 25q-70 0 -139 -29q-63 -27 -115 -80v-561z" />
<glyph unicode="q" horiz-adv-x="1204" d="M92 528q0 127 35 220q35 94 102 167q55 61 160 107q90 39 207 39q70 0 135 -17q49 -12 117 -55v47h186v-1335h156v-172h-492v172h150v381q-49 -49 -115 -78q-61 -27 -147 -27q-106 0 -195 37q-92 39 -158 107q-68 71 -104 172q-37 100 -37 235zM285 530 q0 -96 24.5 -169.5t67.5 -122.5q45 -51 102 -74q61 -25 131 -25q82 0 144 29q59 29 94 65v586q-51 41 -113 60q-63 18 -130.5 18t-125.5 -25q-55 -23 -100 -71q-45 -47 -70 -117q-24 -68 -24 -154z" />
<glyph unicode="r" horiz-adv-x="958" d="M100 0v172h144v692h-144v172h330v-143q18 29 41 59q18 25 51 49q23 16 60 31q34 12 73 12h99q61 0 92 -2v-225h-191v64q-34 0 -67 -13q-35 -12 -66 -37q-29 -23 -51 -65q-25 -45 -33 -94v-500h176v-172h-514z" />
<glyph unicode="s" horiz-adv-x="991" d="M82 111v172h207q0 -43 18.5 -74t48.5 -49q35 -20 70 -28.5t78 -8.5q35 0 76 10q37 10 63 27q25 16 43 45q16 27 16 59q0 51 -32 84q-37 37 -111 64l-199 73q-120 43 -178 111q-59 70 -59 166q0 68 24.5 123t71.5 96q51 43 113 63q72 23 153 23q113 0 187 -31 q72 -29 135 -106h96v-172h-205q0 37 -20 71q-16 27 -49 48q-33 18 -70 28q-33 8 -74 8q-37 0 -73 -10q-39 -10 -58 -24q-25 -18 -37 -43q-14 -29 -14 -54q0 -51 31 -82q33 -33 106 -57l199 -70q127 -43 186 -116q59 -76 60 -178q0 -72 -27 -127q-25 -53 -78 -97 q-51 -41 -123 -63q-74 -23 -157 -23q-121 0 -197 39q-78 41 -117 103h-104z" />
<glyph unicode="t" horiz-adv-x="761" d="M51 885v151h166v248l182 86v-334h244v-151h-246l-2 -598q0 -63 15 -99q16 -39 44.5 -53t69.5 -14q33 0 74 8q35 6 70 25l43 -125q-45 -23 -101 -39q-49 -14 -125 -15q-66 0 -119 16.5t-85.5 55.5t-51.5 105q-16 57 -16 163l2 570h-164z" />
<glyph unicode="u" horiz-adv-x="1349" d="M59 864v172h334v-645q0 -119 55.5 -180t157.5 -61q57 0 129 22q63 20 127 61v631h-137v172h334v-864h115v-172h-304v96q-68 -53 -151.5 -83.5t-175.5 -30.5q-74 0 -142 22q-63 20 -108 69.5t-70 121.5q-23 68 -22 174v495h-142z" />
<glyph unicode="v" horiz-adv-x="1099" d="M20 864v172h359v-172h-98l256 -714l249 714h-61v172h328v-172h-90l-338 -880h-185l-338 880h-82z" />
<glyph unicode="w" horiz-adv-x="1638" d="M20 864v172h328v-172h-49l182 -661l248 833h156l237 -831l189 659h-60v172h328v-172h-88l-285 -880h-172l-235 827l-234 -827h-174l-282 880h-89z" />
<glyph unicode="x" horiz-adv-x="1089" d="M51 864v172h344v-172h-39l191 -246l192 246h-49v172h344v-172h-90l-293 -338l312 -354h75v-172h-344v172h60l-207 256l-201 -256h51v-172h-344v172h84l316 367l-297 325h-105z" />
<glyph unicode="y" horiz-adv-x="1175" d="M31 864v172h393v-172h-123l244 -661l254 661h-123v172h393v-172h-106l-461 -1163h141v-172h-418v172h125l111 285l-346 878h-84z" />
<glyph unicode="z" horiz-adv-x="923" d="M76 0v115l524 766h-330v-146h-184v301h741v-118l-524 -762h354v176h193v-332h-774z" />
<glyph unicode="{" d="M133 596v127q41 0 74 22q27 18 51.5 61.5t32.5 86.5q10 55 10 96v453q0 63 18 112q18 51 48 82q29 33 67 52q37 18 78 18h137v-127h-69q-53 0 -74 -51q-20 -49 -21 -148v-428q0 -51 -14 -108q-10 -43 -35 -84q-20 -35 -53 -61.5t-66 -36.5v-5q33 -10 66 -36 q35 -29 53 -60q25 -41 35 -84q14 -57 14 -110v-418q0 -96 21 -146q23 -53 74 -53h69v-127h-137q-45 0 -78 17q-35 18 -67 53q-29 31 -48 82q-18 49 -18 112v443q0 47 -10 98q-8 43 -33 84q-25 43 -51 61q-33 23 -74 23z" />
<glyph unicode="|" horiz-adv-x="454" d="M152 -270v1996h155v-1996h-155z" />
<glyph unicode="}" d="M72 -250h69q51 0 74 53q20 49 21 146v418q0 53 14 110q10 43 35 84q18 31 53 60q31 25 65 36v5q-35 12 -65 36q-33 27 -53 62q-25 41 -35 84q-14 57 -14 108v428q0 98 -21 148q-20 51 -74 51h-69v127h137q41 0 78 -18q39 -18 67 -52q29 -31 47 -82q18 -49 19 -112v-453 q0 -41 10 -96q8 -43 32.5 -86t51.5 -62q33 -23 74 -22v-127q-41 0 -74 -23q-27 -18 -51 -61q-25 -41 -33 -84q-10 -51 -10 -98v-443q0 -63 -19 -112q-18 -51 -47 -82q-33 -35 -67 -53q-33 -16 -78 -17h-137v127z" />
<glyph unicode="~" horiz-adv-x="1228" d="M141 483q47 84 107 129q63 47 149 47q55 0 119 -22q66 -23 121 -49l108 -49q55 -23 89 -23q41 0 86 35q47 37 94 117l73 -115q-47 -84 -106 -129q-63 -47 -150 -47q-35 0 -79 10q-27 6 -80 27q-27 10 -80 35l-74 34q-55 23 -67 27q-35 10 -56 10q-41 0 -86 -35 q-47 -37 -94 -116z" />
<glyph unicode="&#xa0;" horiz-adv-x="446" d="M0 0z" />
<glyph unicode="&#xa2;" horiz-adv-x="1208" d="M111 684q0 104 30 197q31 90 86 161q57 74 127 117q76 47 162 66v354h197v-356q72 -16 129 -45q55 -29 106 -82h107v-172h-183l-4 -2q-2 0 -2 2v2q-45 76 -106 108q-66 35 -150 35q-68 0 -123 -27q-51 -25 -98 -77q-43 -49 -67 -121q-25 -71 -25 -160q0 -86 25 -158 q25 -70 67 -118q39 -45 100 -76q53 -27 121 -27q96 0 168 47q70 45 113 135l153 -75q-49 -102 -135 -174q-86 -71 -196 -93v-331h-197v329q-90 16 -164 62q-80 49 -129 117q-51 70 -81.5 161.5t-30.5 200.5z" />
<glyph unicode="&#xa3;" horiz-adv-x="931" d="M33 662v145h194q-31 86 -45 141q-18 74 -18 156t26 143q31 70 76 113q49 47 119 72q74 27 150 26q78 0 137 -26q61 -28 104 -74q47 -49 68 -113q22 -65 18 -141l-166 -10q0 25 -12 73q-10 39 -31 66q-23 29 -49 45t-67 16t-76 -12q-33 -12 -55.5 -34.5t-34.5 -51.5 q-10 -25 -15 -61q-2 -25 0 -48q0 -6 1 -15t2 -17t3 -17q2 -6 4.5 -17t5.5 -21.5t5 -18.5l9 -30.5l11 -35.5q8 -37 15 -55l16 -53h279v-145h-234q16 -45 25 -82q4 -14 7 -26.5l5 -21t6 -22.5q8 -31 4 -84q-2 -41 -22 -90q-20 -51 -47 -88q-31 -43 -76 -76h485v-168h-799v168 h109q59 33 98 84t53.5 106.5t8.5 122.5q-6 74 -29 133l-16 44h-252z" />
<glyph unicode="&#xa5;" horiz-adv-x="1353" d="M51 1343v173h492v-173h-146l287 -487l305 487h-158v173h492v-173h-129l-328 -495h185v-141h-283v-148h283v-141h-283v-246h156v-172h-492v172h139v246h-270v141h270v148h-270v141h178l-311 495h-117z" />
<glyph unicode="&#xa9;" horiz-adv-x="1918" d="M102 831q0 117 31 228q31 109 86 205q53 92 133 172t172 133q96 55 205 86q111 31 229 31q117 0 228 -31q109 -31 205 -86q90 -53 174 -133q80 -77 135 -172q55 -96 86 -205q31 -111 31 -228q0 -119 -31 -229q-31 -109 -86 -205q-55 -95 -135 -172q-84 -80 -174 -133 q-96 -55 -205 -86q-111 -31 -228 -31q-119 0 -229 31q-109 31 -205 86q-92 53 -172 133t-133 172q-55 96 -86 205q-31 110 -31 229zM283 831q0 -141 53 -266t143 -215t215 -143t264 -53q137 0 262.5 53t215.5 143q94 94 145 215q53 125 53 266q0 137 -53 268.5t-145 217.5 q-90 84 -215 137t-263 53q-139 0 -264 -53t-215 -137t-143 -217q-53 -132 -53 -269zM477 833.5q0 106.5 39 196.5q41 94 107 160q70 70 159.5 108.5t196.5 38.5q57 0 108 -12q57 -14 97 -33q57 -29 82 -47q41 -31 65 -55l-141 -131q-49 47 -100 67q-49 20 -111 21 q-66 0 -121 -25q-51 -23 -96 -67q-41 -41 -66 -101q-25 -57 -24.5 -120.5t24.5 -118.5q27 -59 66 -99q41 -41 96 -65.5t121 -24.5q53 0 108 23q51 20 84 57l134 -129q-18 -27 -60 -57q-37 -27 -78 -45q-43 -18 -92 -30.5t-96 -12.5q-106 0 -197 39q-94 41 -159.5 106.5 t-106.5 159.5q-39 90 -39 196.5z" />
<glyph unicode="&#xad;" horiz-adv-x="735" d="M94 496v172h551v-172h-551z" />
<glyph unicode="&#xae;" horiz-adv-x="1918" d="M102 831q0 117 31 228q31 109 86 205q53 92 133 172t172 133q96 55 205 86q111 31 229 31q117 0 228 -31q109 -31 205 -86q90 -53 174 -133q80 -77 135 -172q55 -96 86 -205q31 -111 31 -228q0 -119 -31 -229q-31 -109 -86 -205q-55 -95 -135 -172q-84 -80 -174 -133 q-96 -55 -205 -86q-111 -31 -228 -31q-119 0 -229 31q-109 31 -205 86q-92 53 -172 133t-133 172q-55 96 -86 205q-31 110 -31 229zM283 831q0 -141 53 -266t143 -215t215 -143t264 -53q137 0 262.5 53t215.5 143q94 94 145 215q53 125 53 266q0 90 -53 246 q-51 152 -145 240q-90 84 -215 137t-263 53q-139 0 -264 -53t-215 -137t-143 -217q-53 -132 -53 -269zM551 1188v158h483q76 0 131 -21q63 -23 101 -57q41 -39 63 -88q23 -51 23 -109q0 -47 -11 -88q-8 -33 -30 -65q-27 -37 -49 -54q-29 -20 -70 -39q35 -20 55 -51 q25 -37 37 -88l41 -168h82l2 -158h-256l-51 254q-16 86 -64 121q-49 37 -129 37h-67v-254h92v-158h-379v158h98v670h-102zM842 928h143q76 0 119 30.5t43 98.5q0 63 -41 96q-45 35 -129 35h-135v-260z" />
<glyph unicode="&#xb4;" horiz-adv-x="643" d="M84 1178l213 299h240v-17l-299 -282h-154z" />
<glyph unicode="&#x2000;" horiz-adv-x="862" />
<glyph unicode="&#x2001;" horiz-adv-x="1724" />
<glyph unicode="&#x2002;" horiz-adv-x="862" />
<glyph unicode="&#x2003;" horiz-adv-x="1724" />
<glyph unicode="&#x2004;" horiz-adv-x="573" />
<glyph unicode="&#x2005;" horiz-adv-x="430" />
<glyph unicode="&#x2006;" horiz-adv-x="286" />
<glyph unicode="&#x2007;" horiz-adv-x="286" />
<glyph unicode="&#x2008;" horiz-adv-x="212" />
<glyph unicode="&#x2009;" horiz-adv-x="344" />
<glyph unicode="&#x200a;" horiz-adv-x="94" />
<glyph unicode="&#x2010;" horiz-adv-x="735" d="M94 496v172h551v-172h-551z" />
<glyph unicode="&#x2011;" horiz-adv-x="735" d="M94 496v172h551v-172h-551z" />
<glyph unicode="&#x2012;" horiz-adv-x="735" d="M94 496v172h551v-172h-551z" />
<glyph unicode="&#x2013;" horiz-adv-x="1024" d="M0 485v162h1024v-162h-1024z" />
<glyph unicode="&#x2014;" horiz-adv-x="2048" d="M0 485v162h2048v-162h-2048z" />
<glyph unicode="&#x2018;" horiz-adv-x="604" d="M113 1057l249 499l132 -63l-191 -514z" />
<glyph unicode="&#x2019;" horiz-adv-x="604" d="M92 995l184 570l220 -86l-260 -537z" />
<glyph unicode="&#x201c;" horiz-adv-x="1064" d="M129 1057l250 499l131 -63l-191 -514zM555 1057l250 499l131 -63l-191 -514z" />
<glyph unicode="&#x201d;" horiz-adv-x="1026" d="M92 1042l191 514l190 -77l-250 -500zM518 1042l191 514l190 -77l-250 -500z" />
<glyph unicode="&#x2022;" horiz-adv-x="808" d="M154 780q0 47 20 99q18 45 53 79.5t80 53.5q51 20 98.5 20t98.5 -20q45 -18 79.5 -53t53.5 -80q20 -51 20 -98.5t-20 -98.5q-18 -47 -53 -82t-80 -53q-46 -18 -98.5 -18.5t-98.5 18.5q-45 18 -79.5 53t-53.5 82q-20 51 -20 98z" />
<glyph unicode="&#x2026;" horiz-adv-x="2048" d="M205 123q0 29 12 57.5t30.5 47t47.5 30.5t57.5 12t57 -12t47.5 -31q20 -20 32 -47q12 -29 12.5 -57.5t-12.5 -56.5q-12 -27 -32 -48q-18 -18 -47 -30.5t-57.5 -12.5t-57.5 12.5t-47.5 31t-30.5 47t-12 57.5zM877 123q0 29 12 57.5t30.5 47t47 30.5t57.5 12t57 -12 q33 -14 49 -31q18 -18 31 -46.5t13 -57.5t-12.5 -57.5t-31.5 -47.5q-16 -16 -49 -30q-29 -12 -57.5 -12.5t-57 12t-47 31t-30.5 47t-12 57.5zM1548 123q0 29 12.5 57.5t31 47t47 30.5t57 12t57.5 -12t47 -31q20 -20 33 -47q12 -29 12 -57.5t-12 -56.5q-12 -27 -33 -48 q-18 -18 -47 -30.5t-57.5 -12.5t-57 12.5t-47 31t-31 47t-12.5 57.5z" />
<glyph unicode="&#x202f;" horiz-adv-x="344" />
<glyph unicode="&#x205f;" horiz-adv-x="430" />
<glyph unicode="&#x2122;" horiz-adv-x="3622" d="M1577 0v172h144v1153h-144v191h480l481 -1309l487 1309h455v-191h-143v-1153h143v-172h-492v172h162v1163l-530 -1335h-170l-537 1339v-1167h156v-172h-492zM41 1116v400h1352v-400h-205v236h-400v-1180h156v-172h-491v172h139v1180h-346v-236h-205z" />
<glyph unicode="&#xe000;" horiz-adv-x="1035" d="M0 1035h1035v-1035h-1035v1035z" />
<glyph unicode="&#xfb01;" horiz-adv-x="1400" d="M837 864v172h338v-864h156v-172h-492v172h148v692h-150zM952 1403q0 23 10 49q8 20 28.5 40.5t41.5 29.5q27 10 51 10q23 0 49 -10q20 -8 41 -28.5t29 -41.5q10 -27 10 -49q0 -25 -10 -51q-8 -23 -28.5 -43.5t-41.5 -28.5q-27 -10 -49 -10q-25 0 -51 10q-20 8 -41 28.5 t-29 43.5q-10 26 -10 51zM86 885v151h170v162q4 94 26.5 157.5t67.5 110.5q43 45 106.5 67.5t137.5 22.5q51 0 94 -6q66 -10 76 -12q37 -10 59 -18q10 -4 25.5 -11.5l19.5 -9.5l-57 -133q-25 14 -84 29q-51 12 -106 12q-86 0 -132 -51q-47 -53 -47 -152v-168h240v-151h-240 v-713h162v-172h-504v172h156v713h-170z" />
<glyph unicode="&#xfb02;" horiz-adv-x="1409" d="M837 0v172h150v1212h-150v172h336v-1384h156v-172h-492zM86 885v151h170v162q4 94 26.5 157.5t67.5 110.5q43 45 106.5 67.5t137.5 22.5q51 0 94 -6q66 -10 76 -12q37 -10 59 -18q10 -4 25.5 -11.5l19.5 -9.5l-57 -133q-25 14 -84 29q-51 12 -106 12q-86 0 -132 -51 q-47 -53 -47 -152v-168h240v-151h-240v-713h162v-172h-504v172h156v713h-170z" />
<glyph unicode="&#xfb03;" horiz-adv-x="2146" d="M1583 864v172h338v-864h156v-172h-492v172h148v692h-150zM1698 1403q0 23 10 49q8 20 28.5 40.5t41.5 29.5q27 10 51 10q23 0 49 -10q20 -8 41 -28.5t29 -41.5q10 -27 10 -49q0 -25 -10 -51q-8 -23 -28.5 -43.5t-41.5 -28.5q-27 -10 -49 -10q-25 0 -51 10q-20 8 -41 28.5 t-29 43.5q-10 26 -10 51zM831 885v151h170v162q4 94 26.5 157.5t67.5 110.5q43 45 106.5 67.5t137.5 22.5q51 0 94 -6q66 -10 76 -12q37 -10 59 -18q10 -4 25.5 -11.5l19.5 -9.5l-57 -133q-25 14 -84 29q-51 12 -106 12q-86 0 -132 -51q-47 -53 -47 -152v-168h240v-151h-240 v-713h162v-172h-504v172h156v713h-170zM86 885v151h170v162q4 94 26.5 157.5t67.5 110.5q43 45 106.5 67.5t137.5 22.5q51 0 94 -6q66 -10 76 -12q37 -10 59 -18q10 -4 25.5 -11.5l19.5 -9.5l-57 -133q-25 14 -84 29q-51 12 -106 12q-86 0 -132 -51q-47 -53 -47 -152v-168 h240v-151h-240v-713h162v-172h-504v172h156v713h-170z" />
<glyph unicode="&#xfb04;" horiz-adv-x="2154" d="M1583 0v172h150v1212h-150v172h336v-1384h156v-172h-492zM831 885v151h170v162q4 94 26.5 157.5t67.5 110.5q43 45 106.5 67.5t137.5 22.5q51 0 94 -6q66 -10 76 -12q37 -10 59 -18q10 -4 25.5 -11.5l19.5 -9.5l-57 -133q-25 14 -84 29q-51 12 -106 12q-86 0 -132 -51 q-47 -53 -47 -152v-168h240v-151h-240v-713h162v-172h-504v172h156v713h-170zM86 885v151h170v162q4 94 26.5 157.5t67.5 110.5q43 45 106.5 67.5t137.5 22.5q51 0 94 -6q66 -10 76 -12q37 -10 59 -18q10 -4 25.5 -11.5l19.5 -9.5l-57 -133q-25 14 -84 29q-51 12 -106 12 q-86 0 -132 -51q-47 -53 -47 -152v-168h240v-151h-240v-713h162v-172h-504v172h156v713h-170z" />
</font>
</defs>
</svg>
